<svg xmlns="http://www.w3.org/2000/svg" width="29" height="19" viewBox="0 0 29 19" fill="none">
<path d="M27.1317 10.6464C27.7392 10.6464 28.2317 10.1539 28.2317 9.54636C28.2317 8.93885 27.7392 8.44636 27.1317 8.44636L27.1317 10.6464ZM1.47903 8.44636C0.871515 8.44636 0.379028 8.93885 0.379028 9.54636C0.379028 10.1539 0.871515 10.6464 1.47903 10.6464L1.47903 8.44636ZM7.11785 18.3441C7.54934 18.7718 8.24582 18.7686 8.67347 18.3372C9.10113 17.9057 9.09802 17.2092 8.66653 16.7815L7.11785 18.3441ZM5.06564 14.7614L5.83998 13.9801L5.06564 14.7614ZM5.06564 4.33135L5.83998 5.11263L5.06564 4.33135ZM8.66653 2.31119C9.09802 1.88353 9.10113 1.18706 8.67347 0.755567C8.24582 0.324078 7.54934 0.320971 7.11785 0.748626L8.66653 2.31119ZM1.51092 10.0487L0.419744 10.1878L0.419744 10.1878L1.51092 10.0487ZM1.51092 9.044L0.419746 8.90491L0.419746 8.90491L1.51092 9.044ZM27.1317 8.44636L1.47903 8.44636L1.47903 10.6464L27.1317 10.6464L27.1317 8.44636ZM8.66653 16.7815L5.83998 13.9801L4.2913 15.5427L7.11785 18.3441L8.66653 16.7815ZM5.83998 5.11263L8.66653 2.31119L7.11785 0.748626L4.2913 3.55007L5.83998 5.11263ZM5.83998 13.9801C4.69455 12.8448 3.90267 12.0576 3.36572 11.389C2.84271 10.7378 2.65268 10.3066 2.60209 9.90964L0.419744 10.1878C0.542692 11.1524 1.00297 11.9604 1.6504 12.7666C2.28389 13.5554 3.18261 14.4438 4.2913 15.5427L5.83998 13.9801ZM4.2913 3.55007C3.18261 4.64891 2.28389 5.5373 1.6504 6.32612C1.00297 7.13229 0.542692 7.94034 0.419746 8.90491L2.60209 9.18308C2.65268 8.78615 2.84271 8.35493 3.36572 7.70368C3.90267 7.03507 4.69455 6.24789 5.83998 5.11263L4.2913 3.55007ZM2.60209 9.90964C2.57134 9.66841 2.57134 9.42432 2.60209 9.18308L0.419746 8.90491C0.365457 9.33084 0.365453 9.76187 0.419744 10.1878L2.60209 9.90964Z" fill="#373737"/>
</svg>