<svg xmlns="http://www.w3.org/2000/svg" width="29" height="19" viewBox="0 0 29 19" fill="none">
<path d="M1.95135 8.20636C1.34384 8.20636 0.851355 8.69885 0.851355 9.30636C0.851355 9.91388 1.34384 10.4064 1.95135 10.4064L1.95135 8.20636ZM27.604 10.4064C28.2115 10.4064 28.704 9.91387 28.704 9.30636C28.704 8.69885 28.2115 8.20636 27.604 8.20636L27.604 10.4064ZM21.9652 0.508624C21.5337 0.0809699 20.8372 0.084077 20.4096 0.515565C19.9819 0.947055 19.985 1.64353 20.4165 2.07119L21.9652 0.508624ZM24.0174 4.09135L23.2431 4.87263L24.0174 4.09135ZM24.0174 14.5214L23.2431 13.7401L24.0174 14.5214ZM20.4165 16.5415C19.985 16.9692 19.9819 17.6657 20.4096 18.0972C20.8372 18.5286 21.5337 18.5317 21.9652 18.1041L20.4165 16.5415ZM27.5721 8.80399L28.6633 8.66491L28.6633 8.66491L27.5721 8.80399ZM27.5721 9.80872L28.6633 9.94781L28.6633 9.94781L27.5721 9.80872ZM1.95135 10.4064L27.604 10.4064L27.604 8.20636L1.95135 8.20636L1.95135 10.4064ZM20.4165 2.07119L23.2431 4.87263L24.7917 3.31007L21.9652 0.508624L20.4165 2.07119ZM23.2431 13.7401L20.4165 16.5415L21.9652 18.1041L24.7917 15.3026L23.2431 13.7401ZM23.2431 4.87263C24.3885 6.00789 25.1804 6.79507 25.7173 7.46368C26.2403 8.11493 26.4304 8.54615 26.4809 8.94308L28.6633 8.66491C28.5403 7.70034 28.0801 6.89229 27.4326 6.08611C26.7991 5.2973 25.9004 4.40891 24.7917 3.31007L23.2431 4.87263ZM24.7917 15.3026C25.9004 14.2038 26.7991 13.3154 27.4326 12.5266C28.0801 11.7204 28.5403 10.9124 28.6633 9.94781L26.4809 9.66964C26.4304 10.0666 26.2403 10.4978 25.7173 11.149C25.1804 11.8176 24.3885 12.6048 23.2431 13.7401L24.7917 15.3026ZM26.4809 8.94308C26.5117 9.18431 26.5117 9.4284 26.4809 9.66964L28.6633 9.94781C28.7176 9.52188 28.7176 9.09085 28.6633 8.66491L26.4809 8.94308Z" fill="black"/>
</svg>